#!OML:ASF C:\ViconDB\ViconDB\414\Spring2016\041811\Spring2016.ASF
:FULLY-SPECIFIED
:DEGREES
279
root 6.45803 21.5411 -42.3316 -175.019 -0.434212 -177.914
lowerback 11.8299 0.229399 -3.0658
upperback 2.68633 -0.320769 0.399075
thorax -3.80436 -0.245368 2.20116
lowerneck -14.4942 -7.33425 -16.4477
upperneck 18.9094 -10.026 20.1144
head 10.3949 -3.57843 8.77674
rclavicle 1.15295e-014 2.5842e-014
rhumerus -44.5885 17.3027 -66.9966
rradius 94.3264
rwrist -2.72813
rhand -33.2811 -17.8266
rfingers 7.12502
rthumb -6.4856 -47.7073
lclavicle 1.15295e-014 2.5842e-014
lhumerus -39.4215 -17.8321 54.3132
lradius 86.7444
lwrist 5.43429
lhand -35.1419 15.5148
lfingers 7.12502
lthumb -8.28169 45.3325
rfemur -20.0038 -23.7249 24.1305
rtibia 21.2766
rfoot -30.1298 10.8713
rtoes -14.6768
lfemur -11.5129 -2.41649 -8.79033
ltibia 4.4791
lfoot 10.47 16.6927
ltoes -3.886
280
root 6.43884 21.2841 -42.5327 -175.118 -0.289104 -177.855
lowerback 12.7196 0.292698 -3.00231
upperback 2.88315 -0.299755 0.356035
thorax -4.08931 -0.251072 2.12495
lowerneck -14.6061 -7.23964 -16.1314
upperneck 18.6218 -9.88945 19.8607
head 10.2481 -3.52867 8.61403
rclavicle -4.27387e-015 -8.74653e-015
rhumerus -46.5735 15.9918 -68.3245
rradius 92.48
rwrist -2.29439
rhand -33.4824 -17.9922
rfingers 7.12502
rthumb -6.6799 -47.8669
lclavicle -4.27387e-015 -8.74653e-015
lhumerus -41.6747 -17.3746 56.2739
lradius 85.5827
lwrist 4.98719
lhand -35.0711 15.3851
lfingers 7.12502
lthumb -8.21342 45.2055
rfemur -21.2011 -23.6897 24.5656
rtibia 22.2272
rfoot -28.9571 10.3969
rtoes -13.5411
lfemur -14.0503 -2.12261 -8.60584
ltibia 7.94793
lfoot 8.82089 16.7572
ltoes -4.55895
281
root 6.4161 21.0034 -42.7334 -175.293 -0.142805 -177.875
lowerback 13.6895 0.36439 -2.98231
upperback 3.11788 -0.283761 0.335285
thorax -4.37546 -0.26339 2.09793
lowerneck -14.8187 -7.31814 -16.2732
upperneck 18.3648 -9.97712 20.0768
head 10.2418 -3.56133 8.69546
rclavicle -2.38542e-015 2.38542e-015
rhumerus -48.3261 14.4969 -69.4207
rradius 90.379
rwrist -0.916327
rhand -32.9979 -17.1585
rfingers 7.12502
rthumb -6.21223 -47.0474
lclavicle -2.38542e-015 2.38542e-015
lhumerus -43.7447 -16.3819 58.1847
lradius 84.2566
lwrist 4.23412
lhand -35.2609 15.4703
lfingers 7.12502
lthumb -8.39661 45.2834
rfemur -22.3207 -23.655 24.8225
rtibia 23.3226
rfoot -28.2554 9.99311
rtoes -12.7686
lfemur -16.4374 -1.83518 -8.43646
ltibia 11.3888
lfoot 7.42579 16.5285
ltoes -4.95837
282
root 6.4055 20.6931 -42.9122 -175.319 -0.266953 -177.586
lowerback 14.7885 0.350655 -2.69339
upperback 3.23362 -0.333053 0.370493
thorax -4.8515 -0.302295 1.99134
lowerneck -14.9152 -7.35178 -16.1931
upperneck 18.075 -10.0252 20.1224
head 10.1678 -3.58141 8.67115
rclavicle 5.36719e-015 3.57812e-015
rhumerus -50.0091 12.7043 -70.5696
rradius 88.1748
rwrist 0.46457
rhand -33.2926 -17.0508
rfingers 7.12502
rthumb -6.49668 -46.9311
lclavicle 5.36719e-015 3.57812e-015
lhumerus -45.6005 -15.3479 59.9255
lradius 82.6783
lwrist 3.4132
lhand -35.7162 15.7031
lfingers 7.12502
lthumb -8.83591 45.4981
rfemur -23.8823 -23.3977 25.4708
rtibia 24.8386
rfoot -27.7396 9.73018
rtoes -11.7079
lfemur -19.0614 0.0817886 -8.29718
ltibia 14.7158
lfoot 7.38667 14.4394
ltoes -5.24442
283
root 6.38346 20.368 -43.1069 -175.711 -0.288779 -177.548
lowerback 16.0893 0.424959 -2.53921
upperback 3.49685 -0.319164 0.32904
thorax -5.28114 -0.324172 1.87103
lowerneck -14.9141 -7.40315 -16.2173
upperneck 17.6673 -10.0998 20.324
head 10.0572 -3.61236 8.71925
rclavicle 1.09332e-014 3.57812e-015
rhumerus -51.552 10.8328 -71.4775
rradius 86.0145
rwrist 1.68811
rhand -33.4609 -16.9074
rfingers 7.12502
rthumb -6.65912 -46.7827
lclavicle 1.09332e-014 3.57812e-015
lhumerus -47.1697 -14.2489 61.6244
lradius 80.9723
lwrist 2.85853
lhand -35.6162 15.3671
lfingers 7.12502
lthumb -8.73942 45.1662
rfemur -25.1387 -23.0324 25.4775
rtibia 26.8138
rfoot -27.927 9.41282
rtoes -11.5473
lfemur -21.1652 1.98134 -8.53151
ltibia 18.0935
lfoot 7.46804 12.2464
ltoes -4.50752
284
root 6.36823 20.0129 -43.2844 -175.881 -0.434552 -177.56
lowerback 17.3548 0.457441 -2.55085
upperback 3.61719 -0.367581 0.335155
thorax -5.83434 -0.363767 1.90907
lowerneck -14.8162 -7.35085 -16.0397
upperneck 17.1995 -10.0295 20.2779
head 9.8464 -3.59498 8.64961
rclavicle -2.78299e-015 -1.27222e-014
rhumerus -53.0689 9.07897 -72.3491
rradius 83.9142
rwrist 2.55277
rhand -33.8097 -16.8186
rfingers 7.12502
rthumb -6.99583 -46.683
lclavicle -2.78299e-015 -1.27222e-014
lhumerus -48.6661 -12.9745 63.2405
lradius 78.9973
lwrist 1.82224
lhand -35.5333 15.128
lfingers 7.12502
lthumb -8.65947 44.9304
rfemur -26.7968 -22.4462 25.4938
rtibia 29.3061
rfoot -28.2522 8.98816
rtoes -11.1563
lfemur -23.6655 4.08032 -8.94312
ltibia 21.5836
lfoot 8.02526 9.57141
ltoes -5.49034
285
root 6.33747 19.6365 -43.4818 -176.165 -0.202937 -177.515
lowerback 18.4886 0.580997 -2.42874
upperback 3.82136 -0.282861 0.300502
thorax -6.23026 -0.349829 1.79668
lowerneck -14.6586 -7.30625 -15.9906
upperneck 16.6776 -9.96816 20.3962
head 9.62849 -3.57779 8.66725
rclavicle -5.56597e-015 1.03368e-014
rhumerus -54.4092 7.24228 -73.1172
rradius 81.7258
rwrist 3.44912
rhand -34.2317 -16.7757
rfingers 7.12502
rthumb -7.40318 -46.6262
lclavicle -5.56597e-015 1.03368e-014
lhumerus -49.9611 -11.6395 64.7035
lradius 76.849
lwrist 0.748105
lhand -35.541 15.1389
lfingers 7.12502
lthumb -8.66689 44.941
rfemur -28.5146 -22.1749 25.6037
rtibia 32.2354
rfoot -28.6424 8.06007
rtoes -10.4604
lfemur -25.908 6.23489 -9.33618
ltibia 25.1916
lfoot 8.29919 6.7818
ltoes -6.98629
286
root 6.31531 19.2326 -43.6706 -176.433 -0.223729 -177.419
lowerback 19.7249 0.634253 -2.26377
upperback 3.93876 -0.271559 0.315466
thorax -6.76572 -0.366346 1.73055
lowerneck -14.482 -7.41391 -15.896
upperneck 16.2803 -10.119 20.3078
head 9.47909 -3.67699 8.56807
rclavicle -1.19271e-015 -7.95139e-016
rhumerus -55.7123 5.38424 -73.7348
rradius 79.4379
rwrist 4.49602
rhand -34.5727 -16.582
rfingers 7.12502
rthumb -7.73234 -46.4206
lclavicle -1.19271e-015 -7.95139e-016
lhumerus -51.2159 -10.3113 66.0779
lradius 74.6757
lwrist 0.122865
lhand -35.4723 14.9326
lfingers 7.12502
lthumb -8.60054 44.7375
rfemur -30.4511 -22.0331 25.8077
rtibia 35.5044
rfoot -29.5086 7.14403
rtoes -10.0481
lfemur -28.6271 8.10235 -9.66415
ltibia 29.4959
lfoot 8.42403 3.43287
ltoes -8.49289
287
root 6.2935 18.7915 -43.8614 -176.756 -0.234635 -177.415
lowerback 20.8765 0.705426 -2.14076
upperback 4.14955 -0.259166 0.281311
thorax -7.15037 -0.392092 1.63395
lowerneck -14.3599 -7.48456 -15.8488
upperneck 15.7353 -10.2131 20.4131
head 9.29573 -3.73396 8.55687
rclavicle 5.96354e-015 8.74653e-015
rhumerus -56.7776 3.41919 -74.3141
rradius 77.0156
rwrist 5.97859
rhand -34.7638 -16.5701
rfingers 7.12502
rthumb -7.91683 -46.4019
lclavicle 5.96354e-015 8.74653e-015
lhumerus -52.1621 -9.0619 67.3209
lradius 72.4812
lwrist -0.319563
lhand -35.4664 15.2275
lfingers 7.12502
lthumb -8.59485 45.0326
rfemur -32.0414 -21.4366 25.5222
rtibia 39.271
rfoot -29.4038 4.21717
rtoes -13.119
lfemur -31.3809 9.87466 -10.1606
ltibia 34.1209
lfoot 8.20978 -0.746881
ltoes -3.40487
